# xmcd CD database file
# Copyright (C) 1997 Ti Kan
# 
# Track frame offsets:
#     150
#     20490
#     37625
#     62190
#     77725
#     101855
#     121160
#     137280
#     155090
#     174887
#     193202
#     219322
#     243000
# 
# Disc length: 3489 seconds
# 
# Revision: 1
# Processed by: cddbd v1.4b41PL1 Copyright (c) Steve Scherf et al.
# Submitted via: DiscPlay 4.0.4
# 
DISCID=a10d9f0d
DTITLE=Jay Stulo and The Might Aces - Somebody's Knockin'
DYEAR=1900
DGENRE=
TTITLE0=Tell Me Why
TTITLE1=You're the Greatest
TTITLE2=Annie Mae
TTITLE3=Penthouse Pauper
TTITLE4=Murder
TTITLE5=Somebody's Knockin'
TTITLE6=Forever's A Long Time
TTITLE7=It's A Blues Thang
TTITLE8=Bye Bye Baby
TTITLE9=These Arms of Mine
TTITLE10=Drunk Again
TTITLE11=Lay Me Down
TTITLE12=That's Alright
EXTD=
EXTT0=
EXTT1=
EXTT2=
EXTT3=
EXTT4=
EXTT5=
EXTT6=
EXTT7=
EXTT8=
EXTT9=
EXTT10=
EXTT11=
EXTT12=
PLAYORDER=
